<svg xml:space="preserve" style="enable-background:new -350 0 1000 1000;" viewBox="-350 0 1000 1000" y="0px" x="0px" xmlns:xlink="http://www.w3.org/1999/xlink" xmlns="http://www.w3.org/2000/svg" id="图层_1" version="1.1">
<style type="text/css">
	.st0{fill:#EFB134;}
	.st1{fill:#231815;}
</style>
<g id="XMLID_164_">
	<g id="XMLID_169_">
		<circle r="348" cy="508.7" cx="155.1" class="st0"></circle>
		<path d="M155.1,859.6c-193.6,0-350.9-157.3-350.9-350.9s157.3-350.9,350.9-350.9S506,315.1,506,508.7
			S348.7,859.6,155.1,859.6z M155.1,163.6C-35,163.6-190,318.6-190,508.7s155,345.1,345.1,345.1s345.1-155,345.1-345.1
			S345.2,163.6,155.1,163.6z" class="st1"></path>
	</g>
	<g id="XMLID_168_">
		<path d="M201.2,463.8c-9.2,21.3-26.5,35.1-45.5,35.1c-20.2,0-38-15.6-46.7-38" class="st0"></path>
		<path d="M155.7,501.8c-20.7,0-39.8-15-49.6-39.8l5.2-2.3c8.6,22.5,25.9,36.3,44.4,36.3c17.9,0,34-12.7,43.2-33.4
			l5.2,2.3C194.3,488,175.8,501.8,155.7,501.8z" class="st1"></path>
	</g>
	<g id="XMLID_165_">
		<g id="XMLID_167_">
			<circle r="23.6" cy="456.8" cx="-3.4" class="st1"></circle>
		</g>
		<g id="XMLID_166_">
			<circle r="23.6" cy="456.8" cx="313.6" class="st1"></circle>
		</g>
	</g>
</g>
</svg>
